<svg id="circle" xmlns="http://www.w3.org/2000/svg" viewBox="0 0 96 100"><title>circle</title><path d="M52.556,9.422c18.8,1.387,30.475,18.924,35.2,35.544C92,59.871,95.638,85.426,77,92.129c-7.315,2.631-15.948,2.91-23.654,2.916-9.068.007-18.256-1.494-26.119-6.252C13.059,80.217.188,57.937,8.894,41.8c4.22-7.824,11.6-15.232,18.159-21.153C34.491,13.935,43.262,8.654,53.565,8.812a.671.671,0,0,0,0-1.341C34.992,7.185,19.757,23.959,9.8,37.9-1.289,53.441,8.368,75.454,21.7,86.488c6.862,5.678,15.28,8.62,24.074,9.538,9.489.992,20.3.621,29.541-1.967,18.6-5.206,18.484-26.166,15.528-41.832C87.118,32.467,74.989,9.735,52.556,8.08c-.861-.063-.857,1.279,0,1.342Z"/><text transform="translate(44.603 53.382)" style="font-size:12px;font-family:MyriadPro-Regular, Myriad Pro">1</text></svg>