<svg id="circle" xmlns="http://www.w3.org/2000/svg" viewBox="0 0 96 100"><title>circle copie 2</title><path d="M52.637,5.324c9.352.6,18.1,9.971,24.4,16.28,6.981,6.987,12.243,15.084,14.373,24.823,2.124,9.707,1.507,19.794.793,29.625-.357,4.933-.639,10.819-4.522,14.442-3.738,3.487-10.12,4.036-14.962,4.322-18.591,1.1-37-6.751-50.863-18.829C7.909,63.836-3.731,41.563,10.5,24.98c6.622-7.717,17.1-12.1,26.728-14.581,10.661-2.75,22-2.717,31.758,2.85a.637.637,0,0,0,.643-1.1c-16.889-9.635-41.02-3.941-55.634,7.734C-2.893,33.373,1.8,56.327,14.713,70.771c13.584,15.2,34.239,25.5,54.777,25.423,7.755-.027,18.033-.735,21.816-8.675,2.046-4.293,2.048-9.457,2.352-14.1A126,126,0,0,0,93.814,54,51.192,51.192,0,0,0,80.246,23.111,117.364,117.364,0,0,0,65.414,9.785C61.508,6.761,57.655,4.372,52.637,4.05c-.819-.052-.816,1.222,0,1.274Z"/><text transform="translate(47.603 53.382)" style="font-size:12px;font-family:MyriadPro-Regular, Myriad Pro">3</text></svg>