<svg id="circle" xmlns="http://www.w3.org/2000/svg" viewBox="0 0 96 100"><title>circle copie</title><path d="M59.15,16.59C73.037,27,88.61,39.535,93.426,57.012,95.86,65.848,95,75.358,89.93,83.131c-6.378,9.779-17,11.3-27.81,12.108a156.59,156.59,0,0,1-27.38-.355c-8.472-.855-17.974-2.1-25.248-6.9C1,82.368.85,72.821,1.555,63.631a101.852,101.852,0,0,1,6.3-28.054c3.131-8.3,6.84-15.787,14.619-20.572,5.735-3.526,12.351-5.27,18.883-6.63C49.4,6.7,56.06,6.324,63.136,11.184c6.465,4.44,11.411,11.075,15.013,17.958,8.306,15.868,8.864,35.191,4.219,52.245C81.021,86.328,79.373,92.1,74,93.963c-4.247,1.472-9.286.93-13.7.831-9.019-.2-19.824.419-28.356-2.838-9.284-3.544-14.923-13.479-19.911-21.54C6.4,61.3,3.571,51.7,6.42,41.078,12.09,19.942,31.847,11.319,50.789,4.972c.773-.26.442-1.49-.339-1.229-17.941,6.013-36.3,13.7-43.778,32.55a34.822,34.822,0,0,0-.381,25.9A79.983,79.983,0,0,0,22.446,86.963c6.746,6.92,14.869,7.92,24.106,8.511q8.829.566,17.679.659c3.817.037,7.949.2,11.487-1.5C83.31,91,84.623,78.942,85.674,71.671A77.269,77.269,0,0,0,84.463,42.4C80.923,27.878,70.292,8.678,54.035,5.893c-7.116-1.218-15.828,1.5-22.547,3.7-7.032,2.3-13.656,5.949-18.155,11.974C7.411,29.494,4.3,40.57,2.257,50.1.325,59.1-1.783,70.425,1.168,79.4,6.849,96.687,34.362,96.8,48.889,96.941c10.608.1,24.7.6,34.115-5.137C91.381,86.7,95.942,76.551,96.05,66.98c.257-22.623-19.814-39.167-36.257-51.49-.656-.492-1.292.613-.643,1.1Z"/><text transform="translate(37.603 53.382)" style="font-size:12px;font-family:MyriadPro-Regular, Myriad Pro">2</text></svg>