<svg id="circle" xmlns="http://www.w3.org/2000/svg" viewBox="0 0 300 100"><title>circle</title><path d="M52.556,9.422c18.8,1.387,30.475,18.924,35.2,35.544C92,59.871,95.638,85.426,77,92.129c-7.315,2.631-15.948,2.91-23.654,2.916-9.068.007-18.256-1.494-26.119-6.252C13.059,80.217.188,57.937,8.894,41.8c4.22-7.824,11.6-15.232,18.159-21.153C34.491,13.935,43.262,8.654,53.565,8.812a.671.671,0,0,0,0-1.341C34.992,7.185,19.757,23.959,9.8,37.9-1.289,53.441,8.368,75.454,21.7,86.488c6.862,5.678,15.28,8.62,24.074,9.538,9.489.992,20.3.621,29.541-1.967,18.6-5.206,18.484-26.166,15.528-41.832C87.118,32.467,74.989,9.735,52.556,8.08c-.861-.063-.857,1.279,0,1.342Z"/><path d="M159.15,16.59C173.037,27,188.61,39.535,193.426,57.012c2.434,8.836,1.573,18.346-3.5,26.119-6.378,9.779-17,11.3-27.81,12.108a156.59,156.59,0,0,1-27.38-.355c-8.472-.855-17.974-2.1-25.248-6.9-8.5-5.613-8.642-15.16-7.937-24.35a101.852,101.852,0,0,1,6.3-28.054c3.131-8.3,6.84-15.787,14.619-20.572,5.735-3.526,12.351-5.27,18.883-6.63,8.041-1.674,14.7-2.051,21.779,2.809,6.465,4.44,11.411,11.075,15.013,17.958,8.306,15.868,8.864,35.191,4.219,52.245-1.347,4.941-3,10.713-8.369,12.576-4.247,1.472-9.286.93-13.7.831-9.019-.2-19.824.419-28.356-2.838-9.284-3.544-14.923-13.479-19.911-21.54C106.4,61.3,103.571,51.7,106.42,41.078c5.67-21.136,25.427-29.759,44.369-36.106.773-.26.442-1.49-.339-1.229-17.941,6.013-36.3,13.7-43.778,32.55a34.822,34.822,0,0,0-.381,25.9,79.983,79.983,0,0,0,16.155,24.773c6.746,6.92,14.869,7.92,24.106,8.511q8.829.566,17.679.659c3.817.037,7.949.2,11.487-1.5,7.592-3.634,8.905-15.694,9.956-22.965A77.269,77.269,0,0,0,184.463,42.4c-3.54-14.525-14.171-33.725-30.428-36.51-7.116-1.218-15.828,1.5-22.547,3.7-7.032,2.3-13.656,5.949-18.155,11.974-5.922,7.931-9.029,19.007-11.076,28.54-1.932,8.993-4.04,20.322-1.089,29.3,5.681,17.285,33.194,17.395,47.721,17.539,10.608.1,24.7.6,34.115-5.137,8.377-5.1,12.938-15.253,13.046-24.824.257-22.623-19.814-39.167-36.257-51.49-.656-.492-1.292.613-.643,1.1Z"/><path d="M254.637,5.324c9.352.6,18.1,9.971,24.4,16.28,6.981,6.987,12.243,15.084,14.373,24.823,2.124,9.707,1.507,19.794.793,29.625-.357,4.933-.639,10.819-4.522,14.442-3.738,3.487-10.12,4.036-14.962,4.322-18.591,1.1-37-6.751-50.863-18.829C209.909,63.836,198.269,41.563,212.5,24.98c6.622-7.717,17.1-12.1,26.728-14.581,10.661-2.75,22-2.717,31.758,2.85a.637.637,0,0,0,.643-1.1c-16.889-9.635-41.02-3.941-55.634,7.734-16.885,13.49-12.188,36.444.721,50.888,13.584,15.2,34.239,25.5,54.777,25.423,7.755-.027,18.033-.735,21.816-8.675,2.046-4.293,2.048-9.457,2.352-14.1A126,126,0,0,0,295.814,54a51.192,51.192,0,0,0-13.568-30.888A117.364,117.364,0,0,0,267.414,9.785c-3.906-3.024-7.759-5.413-12.777-5.735-.819-.052-.816,1.222,0,1.274Z"/><text transform="translate(44.603 53.382)" style="font-size:12px;font-family:MyriadPro-Regular, Myriad Pro">1</text><text transform="translate(137.603 53.382)" style="font-size:12px;font-family:MyriadPro-Regular, Myriad Pro">2</text><text transform="translate(249.603 53.382)" style="font-size:12px;font-family:MyriadPro-Regular, Myriad Pro">3</text></svg>